# xmcd CD database file
#
# Track frame offsets:
#	150
#	13327
#	25890
#	39687
#	52992
#	66980
#	78487
#	87885
#	99762
#	111367
#	123602
#	134772
#	146137
#	156640
#	169505
#	185107
#	198622
#
# Disc length: 2801 seconds
#
# Revision: 2
# Processed by: cddbd v1.4PL0 Copyright (c) Steve Scherf et al.
# Submitted via: CDex 1.50Beta3
#
DISCID=000aef11
DTITLE=Various Artist - Number One Country
DYEAR=1900
DGENRE=Country
TTITLE0=Hey Good Lookin'
TTITLE1=One Has My Name (The Other Has My Heart)
TTITLE2=Goodnight Irene
TTITLE3=Candy Kisses
TTITLE4=Always Late (With Your Kisses)
TTITLE5=Loose Talk
TTITLE6=In The Jailhouse Now
TTITLE7=Sixteen Tons
TTITLE8=Crazy Arms
TTITLE9=I Walk The Line
TTITLE10=Singing The Blues
TTITLE11=Young Love
TTITLE12=He'll Have To Go
TTITLE13=North To Alaska
TTITLE14=Mama Sang A Song
TTITLE15=Wolverton Mountain
TTITLE16=She Thinks I Still Care
EXTD=
EXTT0=
EXTT1=
EXTT2=
EXTT3=
EXTT4=
EXTT5=
EXTT6=
EXTT7=
EXTT8=
EXTT9=
EXTT10=
EXTT11=
EXTT12=
EXTT13=
EXTT14=
EXTT15=
EXTT16=
PLAYORDER=
